<svg width="24" height="24" viewBox="0 0 24 24" fill="none" xmlns="http://www.w3.org/2000/svg">
<path d="M14 5.28988H13.25C13.25 5.62169 13.4681 5.91407 13.7861 6.00872L14 5.28988ZM15.3302 5.84137L14.9729 6.50078C15.2647 6.65892 15.6258 6.60641 15.8605 6.3717L15.3302 5.84137ZM16.2426 4.92891L15.7123 4.39858V4.39858L16.2426 4.92891ZM17.6569 4.92891L17.1265 5.45924L17.1265 5.45924L17.6569 4.92891ZM19.0711 6.34312L19.6014 5.81279V5.81279L19.0711 6.34312ZM19.0711 7.75734L18.5407 7.22701H18.5407L19.0711 7.75734ZM18.1586 8.66978L17.6283 8.13945C17.3936 8.37417 17.3411 8.73526 17.4992 9.02711L18.1586 8.66978ZM18.7101 10L17.9913 10.2139C18.0859 10.532 18.3783 10.75 18.7101 10.75V10ZM18.7101 14V13.25C18.3783 13.25 18.0859 13.468 17.9913 13.7861L18.7101 14ZM18.1586 15.3302L17.4992 14.9729C17.3411 15.2647 17.3936 15.6258 17.6283 15.8605L18.1586 15.3302ZM19.0711 16.2427L19.6014 15.7123L19.0711 16.2427ZM19.0711 17.6569L18.5407 17.1265L18.5407 17.1265L19.0711 17.6569ZM17.6569 19.0711L18.1872 19.6014H18.1872L17.6569 19.0711ZM15.3302 18.1586L15.8605 17.6283C15.6258 17.3936 15.2647 17.3411 14.9729 17.4992L15.3302 18.1586ZM14 18.7101L13.7861 17.9913C13.4681 18.0859 13.25 18.3783 13.25 18.7101H14ZM10 18.7101H10.75C10.75 18.3783 10.532 18.0859 10.214 17.9913L10 18.7101ZM8.6698 18.1586L9.02712 17.4992C8.73527 17.3411 8.37419 17.3936 8.13947 17.6283L8.6698 18.1586ZM7.75736 19.071L7.22703 18.5407L7.22703 18.5407L7.75736 19.071ZM6.34315 19.071L5.81282 19.6014H5.81282L6.34315 19.071ZM4.92894 17.6568L4.39861 18.1872H4.39861L4.92894 17.6568ZM4.92894 16.2426L4.39861 15.7123H4.39861L4.92894 16.2426ZM5.84138 15.3302L6.37171 15.8605C6.60643 15.6258 6.65894 15.2647 6.50079 14.9729L5.84138 15.3302ZM5.28989 14L6.00873 13.7861C5.91408 13.468 5.62171 13.25 5.28989 13.25V14ZM5.28989 10V10.75C5.62171 10.75 5.91408 10.532 6.00873 10.2139L5.28989 10ZM5.84138 8.66982L6.5008 9.02714C6.65894 8.7353 6.60643 8.37421 6.37171 8.13949L5.84138 8.66982ZM4.92894 7.75738L4.39861 8.28771H4.39861L4.92894 7.75738ZM4.92894 6.34317L5.45927 6.8735H5.45927L4.92894 6.34317ZM6.34315 4.92895L6.87348 5.45928V5.45928L6.34315 4.92895ZM7.75737 4.92895L8.2877 4.39862V4.39862L7.75737 4.92895ZM8.6698 5.84139L8.13947 6.37172C8.37419 6.60644 8.73528 6.65894 9.02713 6.5008L8.6698 5.84139ZM10 5.28988L10.214 6.00872C10.532 5.91407 10.75 5.62169 10.75 5.28988H10ZM11 2.25C10.0335 2.25 9.25002 3.0335 9.25002 4H10.75C10.75 3.86193 10.8619 3.75 11 3.75V2.25ZM13 2.25H11V3.75H13V2.25ZM14.75 4C14.75 3.0335 13.9665 2.25 13 2.25V3.75C13.1381 3.75 13.25 3.86193 13.25 4H14.75ZM14.75 5.28988V4H13.25V5.28988H14.75ZM15.6875 5.18195C15.223 4.93027 14.7298 4.72456 14.214 4.57104L13.7861 6.00872C14.2013 6.13229 14.5985 6.29793 14.9729 6.50078L15.6875 5.18195ZM15.7123 4.39858L14.7999 5.31104L15.8605 6.3717L16.773 5.45924L15.7123 4.39858ZM18.1872 4.39858C17.5038 3.71516 16.3957 3.71516 15.7123 4.39858L16.773 5.45924C16.8706 5.36161 17.0289 5.36161 17.1265 5.45924L18.1872 4.39858ZM19.6014 5.81279L18.1872 4.39858L17.1265 5.45924L18.5407 6.87345L19.6014 5.81279ZM19.6014 8.28767C20.2848 7.60425 20.2848 6.49621 19.6014 5.81279L18.5407 6.87345C18.6384 6.97108 18.6384 7.12937 18.5407 7.22701L19.6014 8.28767ZM18.689 9.20011L19.6014 8.28767L18.5407 7.22701L17.6283 8.13945L18.689 9.20011ZM19.429 9.78606C19.2754 9.2702 19.0697 8.77694 18.818 8.31246L17.4992 9.02711C17.7021 9.40147 17.8677 9.79871 17.9913 10.2139L19.429 9.78606ZM18.7101 10.75H20V9.25H18.7101V10.75ZM20 10.75C20.1381 10.75 20.25 10.8619 20.25 11H21.75C21.75 10.0335 20.9665 9.25 20 9.25V10.75ZM20.25 11V13H21.75V11H20.25ZM20.25 13C20.25 13.1381 20.1381 13.25 20 13.25V14.75C20.9665 14.75 21.75 13.9665 21.75 13H20.25ZM20 13.25H18.7101V14.75H20V13.25ZM18.818 15.6875C19.0697 15.2231 19.2754 14.7298 19.429 14.2139L17.9913 13.7861C17.8677 14.2013 17.7021 14.5985 17.4992 14.9729L18.818 15.6875ZM19.6014 15.7123L18.689 14.7999L17.6283 15.8605L18.5407 16.773L19.6014 15.7123ZM19.6014 18.1872C20.2848 17.5038 20.2848 16.3957 19.6014 15.7123L18.5407 16.773C18.6384 16.8706 18.6384 17.0289 18.5407 17.1265L19.6014 18.1872ZM18.1872 19.6014L19.6014 18.1872L18.5407 17.1265L17.1265 18.5408L18.1872 19.6014ZM15.7123 19.6014C16.3957 20.2848 17.5038 20.2848 18.1872 19.6014L17.1265 18.5408C17.0289 18.6384 16.8706 18.6384 16.773 18.5408L15.7123 19.6014ZM14.7999 18.689L15.7123 19.6014L16.773 18.5408L15.8605 17.6283L14.7999 18.689ZM14.214 19.429C14.7298 19.2754 15.223 19.0697 15.6875 18.818L14.9729 17.4992C14.5985 17.7021 14.2013 17.8677 13.7861 17.9913L14.214 19.429ZM14.75 20V18.7101H13.25V20H14.75ZM13 21.75C13.9665 21.75 14.75 20.9665 14.75 20H13.25C13.25 20.1381 13.1381 20.25 13 20.25V21.75ZM11 21.75H13V20.25H11V21.75ZM9.25002 20C9.25002 20.9665 10.0335 21.75 11 21.75V20.25C10.8619 20.25 10.75 20.1381 10.75 20H9.25002ZM9.25002 18.7101V20H10.75V18.7101H9.25002ZM8.31248 18.818C8.77696 19.0697 9.27021 19.2754 9.78608 19.429L10.214 17.9913C9.79872 17.8677 9.40148 17.7021 9.02712 17.4992L8.31248 18.818ZM8.28769 19.6014L9.20013 18.6889L8.13947 17.6283L7.22703 18.5407L8.28769 19.6014ZM5.81282 19.6014C6.49624 20.2848 7.60428 20.2848 8.2877 19.6014L7.22703 18.5407C7.1294 18.6383 6.97111 18.6383 6.87348 18.5407L5.81282 19.6014ZM4.39861 18.1872L5.81282 19.6014L6.87348 18.5407L5.45927 17.1265L4.39861 18.1872ZM4.39861 15.7123C3.71519 16.3957 3.71519 17.5037 4.39861 18.1872L5.45927 17.1265C5.36164 17.0289 5.36164 16.8706 5.45927 16.7729L4.39861 15.7123ZM5.31105 14.7998L4.39861 15.7123L5.45927 16.7729L6.37171 15.8605L5.31105 14.7998ZM4.57105 14.2139C4.72458 14.7298 4.93029 15.223 5.18197 15.6875L6.50079 14.9729C6.29794 14.5985 6.13231 14.2013 6.00873 13.7861L4.57105 14.2139ZM5.28989 13.25H4V14.75H5.28989V13.25ZM4 13.25C3.86193 13.25 3.75 13.1381 3.75 13H2.25C2.25 13.9665 3.0335 14.75 4 14.75V13.25ZM3.75 13V11H2.25V13H3.75ZM3.75 11C3.75 10.8619 3.86193 10.75 4 10.75V9.25C3.0335 9.25 2.25 10.0335 2.25 11H3.75ZM4 10.75H5.28989V9.25H4V10.75ZM5.18197 8.3125C4.93029 8.77697 4.72458 9.27021 4.57105 9.78606L6.00873 10.2139C6.13231 9.79872 6.29794 9.40149 6.5008 9.02714L5.18197 8.3125ZM4.39861 8.28771L5.31105 9.20015L6.37171 8.13949L5.45927 7.22705L4.39861 8.28771ZM4.39861 5.81284C3.71519 6.49625 3.71519 7.60429 4.39861 8.28771L5.45927 7.22705C5.36164 7.12942 5.36164 6.97113 5.45927 6.8735L4.39861 5.81284ZM5.81282 4.39862L4.39861 5.81284L5.45927 6.8735L6.87348 5.45928L5.81282 4.39862ZM8.2877 4.39862C7.60428 3.71521 6.49624 3.71521 5.81282 4.39862L6.87348 5.45928C6.97112 5.36165 7.12941 5.36165 7.22704 5.45928L8.2877 4.39862ZM9.20013 5.31106L8.2877 4.39862L7.22704 5.45928L8.13947 6.37172L9.20013 5.31106ZM9.78608 4.57104C9.27021 4.72457 8.77696 4.93029 8.31248 5.18198L9.02713 6.5008C9.40148 6.29794 9.79873 6.1323 10.214 6.00872L9.78608 4.57104ZM9.25002 4V5.28988H10.75V4H9.25002Z" fill="#9E9E9E"/>
<circle cx="12" cy="12" r="3" stroke="#9E9E9E" stroke-width="1.5" stroke-linecap="round" stroke-linejoin="round"/>
</svg>
