<svg width="22" height="27" viewBox="0 0 22 27" fill="none" xmlns="http://www.w3.org/2000/svg">
<path d="M20.358 10.3333C20.358 18.1111 10.679 25.8889 10.679 25.8889C10.679 25.8889 1 18.1111 1 10.3333C1 5.17868 5.33344 1 10.679 1C16.0246 1 20.358 5.17868 20.358 10.3333Z" stroke="#FF8882" stroke-width="2" stroke-linecap="round" stroke-linejoin="round"/>
<path d="M10.4163 5.92074C10.6076 5.58141 11.0962 5.58141 11.2875 5.92074L12.5499 8.16053C12.6213 8.28712 12.7442 8.3764 12.8866 8.40514L15.4069 8.91366C15.7887 8.9907 15.9397 9.45542 15.6761 9.74217L13.936 11.635C13.8377 11.7419 13.7907 11.8864 13.8074 12.0308L14.1026 14.5848C14.1473 14.9718 13.752 15.259 13.3978 15.0969L11.06 14.0269C10.9278 13.9664 10.7759 13.9664 10.6438 14.0269L8.30596 15.0969C7.95179 15.259 7.55647 14.9718 7.60119 14.5848L7.89637 12.0308C7.91305 11.8864 7.86611 11.7419 7.76777 11.635L6.02772 9.74217C5.7641 9.45542 5.9151 8.9907 6.29692 8.91366L8.8172 8.40514C8.95964 8.3764 9.08253 8.28711 9.15388 8.16053L10.4163 5.92074Z" fill="#FF8882"/>
</svg>
