<svg width="12" height="16" viewBox="0 0 12 16" fill="none" xmlns="http://www.w3.org/2000/svg">
<path fill-rule="evenodd" clip-rule="evenodd" d="M6 3.20005C3.93764 3.20005 2.4 4.74929 2.4 6.50005C2.4 7.91864 3.34409 9.50775 4.51282 10.8774C5.04667 11.503 5.58363 12.0324 6 12.4152C6.41637 12.0324 6.95333 11.503 7.48718 10.8774C8.65591 9.50775 9.6 7.91864 9.6 6.50005C9.6 4.74929 8.06236 3.20005 6 3.20005ZM6 14C5.26123 14.9457 5.26098 14.9455 5.26072 14.9453L5.25855 14.9436L5.25412 14.9401L5.24013 14.929L5.19232 14.8907C5.15194 14.8581 5.09487 14.8115 5.02351 14.7518C4.88088 14.6324 4.68053 14.4601 4.44164 14.2424C3.96548 13.8084 3.32804 13.1863 2.68718 12.4352C1.45591 10.9924 0 8.83146 0 6.50005C0 3.28025 2.76042 0.800049 6 0.800049C9.23958 0.800049 12 3.28025 12 6.50005C12 8.83146 10.5441 10.9924 9.31282 12.4352C8.67196 13.1863 8.03452 13.8084 7.55836 14.2424C7.31947 14.4601 7.11912 14.6324 6.97649 14.7518C6.90513 14.8115 6.84806 14.8581 6.80768 14.8907L6.75987 14.929L6.74588 14.9401L6.74145 14.9436L6.73989 14.9448C6.73963 14.945 6.73877 14.9457 6 14ZM6 14L6.73877 14.9457C6.30465 15.2848 5.69485 15.2844 5.26072 14.9453L6 14Z" fill="#352269" fill-opacity="0.75"/>
<path d="M7.20005 6.79985C7.20005 7.4626 6.66279 7.99985 6.00005 7.99985C5.33731 7.99985 4.80005 7.4626 4.80005 6.79985C4.80005 6.13711 5.33731 5.59985 6.00005 5.59985C6.66279 5.59985 7.20005 6.13711 7.20005 6.79985Z" fill="#352269" fill-opacity="0.75"/>
</svg>
