<svg width="20" height="20" viewBox="0 0 20 20" fill="none" xmlns="http://www.w3.org/2000/svg">
<path fill-rule="evenodd" clip-rule="evenodd" d="M6.38037 0.445198C6.94486 0.257037 7.55514 0.257037 8.11963 0.445198L12.8547 2.02356C13.1113 2.10909 13.3887 2.10909 13.6453 2.02356L17.6966 0.673122C18.8298 0.295396 20 1.13884 20 2.33332V15.3279C20 15.9907 19.6255 16.5967 19.0326 16.8931L14.4798 19.1695C14.1716 19.3236 13.8417 19.4164 13.5073 19.4478C13.3701 19.6001 13.1712 19.6959 12.95 19.6959C12.657 19.6959 12.4033 19.5279 12.2799 19.283C12.1919 19.2499 12.1052 19.212 12.0202 19.1695L7.80902 17.0639C7.45711 16.888 7.04289 16.888 6.69098 17.0639L3.03262 18.8931C1.86905 19.4749 0.5 18.6288 0.5 17.3279V3.66665C0.5 2.9134 0.982003 2.24466 1.6966 2.00646L6.38037 0.445198ZM13.809 17.8279C13.7733 17.8457 13.7369 17.8618 13.7 17.876V3.55064C13.8417 3.52714 13.982 3.49245 14.1196 3.44659L18.1709 2.09615C18.3328 2.04219 18.5 2.16268 18.5 2.33332V15.3279C18.5 15.4226 18.4465 15.5091 18.3618 15.5515L13.809 17.8279ZM8.3 2.08646L12.2 3.38646V17.5824L8.47984 15.7223C8.42065 15.6927 8.36067 15.6654 8.3 15.6403L8.3 2.08646ZM6.80238 1.88567L2.17094 3.42948C2.06886 3.46351 2 3.55904 2 3.66665V17.3279C2 17.5137 2.19558 17.6346 2.3618 17.5515L6.02016 15.7223C6.26898 15.5979 6.53196 15.5134 6.8 15.469L6.8 1.94589C6.8 1.92562 6.8008 1.90553 6.80238 1.88567Z" fill="white"/>
</svg>
