<svg width="21" height="20" viewBox="0 0 21 20" fill="none" xmlns="http://www.w3.org/2000/svg">
<path d="M16.625 11V4.26243C16.625 3.57987 15.9563 3.0979 15.3088 3.31374L12.5075 4.24752C12.0969 4.38436 11.6531 4.38436 11.2425 4.24751L7.75746 3.08582C7.34692 2.94897 6.90308 2.94897 6.49254 3.08582L3.05877 4.23041C2.65043 4.36652 2.375 4.74866 2.375 5.17909V15.507C2.375 16.2503 3.15731 16.7338 3.82221 16.4014L6.23057 15.1972C6.79363 14.9157 7.45637 14.9157 8.01943 15.1972L10.9806 16.6778C11.5436 16.9593 12.2064 16.9593 12.7694 16.6778L15 15.5625" stroke="#FF8882" stroke-width="1.5" stroke-linecap="round" stroke-linejoin="round"/>
<path d="M11.6375 4.45831V16.8281" stroke="#FF8882" stroke-width="1.5" stroke-linecap="round" stroke-linejoin="round"/>
<path d="M7.3625 3.66669L7.3625 14.75" stroke="#FF8882" stroke-width="1.5" stroke-linecap="round" stroke-linejoin="round"/>
<path d="M20 13.8594C20 16.0859 17.3281 18.3125 17.3281 18.3125C17.3281 18.3125 14.6562 16.0859 14.6562 13.8594C14.6562 12.3837 15.8525 11.1875 17.3281 11.1875C18.8038 11.1875 20 12.3837 20 13.8594Z" stroke="#FF8882" stroke-width="1.5" stroke-linecap="round" stroke-linejoin="round"/>
<ellipse cx="17.2688" cy="13.7909" rx="0.831343" ry="0.822115" fill="#FF8882"/>
</svg>
