<svg width="54" height="54" viewBox="0 0 54 54" fill="none" xmlns="http://www.w3.org/2000/svg">
<rect width="54" height="54" rx="27" fill="white"/>
<path d="M27.1894 21.5709V30.7236C27.1894 31.1685 26.8187 31.5392 26.3738 31.5392H22.9467C22.5019 31.5392 22.1394 31.1685 22.1394 30.7236V21.5709C22.1394 20.5082 22.7984 19.602 23.7211 19.2313V14.3131C23.7211 14.1483 23.8612 14 24.0424 14H25.2122C25.3852 14 25.5335 14.1401 25.5335 14.3131V19.2066C26.4974 19.5526 27.1894 20.4835 27.1894 21.5709Z" fill="#FF8882"/>
<path d="M32.9974 21.5709V30.7236C32.9974 31.1685 32.6266 31.5392 32.1818 31.5392H28.7547C28.3098 31.5392 27.9473 31.1685 27.9473 30.7236V21.5709C27.9473 20.5082 28.6064 19.602 29.5291 19.2313V14.3131C29.5291 14.1483 29.6691 14 29.8504 14H31.0202C31.1932 14 31.3415 14.1401 31.3415 14.3131V19.2066C32.3054 19.5526 32.9974 20.4835 32.9974 21.5709Z" fill="#FFBD55"/>
<path d="M14 19.3549C14.1812 18.8194 14.5602 18.6217 15.1204 18.6382C16.0019 18.6629 16.8834 18.6464 17.7649 18.6464C18.3168 18.6464 18.6134 18.8771 18.7535 19.4208C19.0006 20.4341 19.2395 21.4556 19.4867 22.4689C19.5031 22.5431 19.5279 22.6172 19.5526 22.7161C19.6679 22.7161 19.775 22.7161 19.8821 22.7161C25.5418 22.7161 31.2097 22.7161 36.8693 22.7161C37.0259 22.7161 37.1824 22.7161 37.3389 22.749C37.8003 22.8561 38.0886 23.3339 37.9733 23.82C37.6767 25.0805 37.3554 26.3327 37.0506 27.5931C36.6469 29.2161 36.2515 30.8307 35.8478 32.4537C35.683 33.121 35.4194 33.3352 34.7274 33.3352C30.1964 33.3352 25.6653 33.3352 21.1343 33.3352C20.4588 33.3352 20.1869 33.1292 20.0304 32.4702C19.0995 28.5735 18.1685 24.6768 17.2376 20.7801C17.1552 20.4506 17.1635 20.4506 16.8175 20.4506C16.2655 20.4506 15.7053 20.4341 15.1534 20.4588C14.5932 20.4835 14.1977 20.2858 14 19.7503C14 19.6103 14 19.4785 14 19.3549ZM35.9467 24.5203C30.6165 24.5203 25.3111 24.5203 19.9727 24.5203C20.5329 26.8682 21.0931 29.1996 21.6451 31.531C21.711 31.531 21.7604 31.5392 21.8099 31.5392C25.8795 31.5392 29.9492 31.5392 34.0107 31.5392C34.1672 31.5392 34.2249 31.4898 34.2578 31.3415C34.6697 29.6527 35.0899 27.9638 35.51 26.2832C35.6501 25.6983 35.7984 25.1134 35.9467 24.5203Z" fill="#352269"/>
<path d="M25.1216 37.6108C25.1216 39.2667 23.7788 40.6013 22.1229 40.5931C20.467 40.5848 19.1407 39.2503 19.1407 37.5944C19.1489 35.9467 20.4753 34.6286 22.1229 34.6204C23.787 34.6204 25.1299 35.9632 25.1216 37.6108ZM23.3257 37.6191C23.3257 36.96 22.7984 36.4245 22.1476 36.4163C21.4886 36.4081 20.9366 36.96 20.9366 37.6108C20.9366 38.2617 21.4803 38.8054 22.1311 38.8054C22.782 38.8054 23.3257 38.2699 23.3257 37.6191Z" fill="#352269"/>
<path d="M30.0069 37.6025C30.0069 35.9466 31.3497 34.612 32.9974 34.6203C34.645 34.6285 35.9714 35.9549 35.9796 37.5943C35.9879 39.2502 34.6533 40.5848 32.9974 40.593C31.3497 40.593 30.0069 39.2584 30.0069 37.6025ZM31.8028 37.6108C31.8028 38.2616 32.3466 38.7971 32.9974 38.7971C33.6482 38.7971 34.1919 38.2533 34.1919 37.6025C34.2002 36.9435 33.64 36.3997 32.9809 36.408C32.3301 36.4245 31.8028 36.9599 31.8028 37.6108Z" fill="#352269"/>
</svg>
