<svg width="24" height="24" viewBox="0 0 24 24" fill="none" xmlns="http://www.w3.org/2000/svg">
<path d="M15.5 2.5L16.5 2.5C16.5001 2.40944 16.4993 2.32258 16.4967 2.23704C16.4896 2.01058 16.4697 1.84895 16.434 1.7332C16.4011 1.62661 16.3641 1.58792 16.3346 1.56736C16.2998 1.54312 16.2109 1.5 15.9996 1.5C15.7883 1.5 15.6996 1.54312 15.6649 1.56729C15.6356 1.58777 15.5986 1.62636 15.5657 1.73296C15.5301 1.84872 15.5102 2.01037 15.5033 2.23689C15.5006 2.32251 15.4999 2.40941 15.5 2.5Z" stroke="#352269"/>
<path d="M8.50003 3.5L7.49997 3.5C7.49989 3.59055 7.50066 3.67742 7.50332 3.76296C7.51036 3.98942 7.53029 4.15105 7.566 4.2668C7.59889 4.37339 7.63594 4.41208 7.66544 4.43264C7.70022 4.45688 7.7891 4.5 8.00037 4.5C8.21165 4.5 8.30042 4.45688 8.33507 4.43271C8.36444 4.41223 8.40144 4.37364 8.43427 4.26704C8.46992 4.15128 8.48978 3.98963 8.49675 3.76311C8.49938 3.67749 8.50013 3.59059 8.50003 3.5Z" stroke="#352269"/>
<path d="M8.50003 2.5L7.49997 2.5C7.49991 2.40947 7.5007 2.32264 7.50338 2.23718C7.51048 2.01076 7.53047 1.84911 7.56623 1.73333C7.59916 1.62667 7.63626 1.58791 7.6658 1.56732C7.70056 1.54308 7.78934 1.5 8.00031 1.5C8.2113 1.5 8.29998 1.54309 8.33464 1.56726C8.36406 1.58779 8.40111 1.62647 8.434 1.73313C8.46971 1.84891 8.48964 2.01058 8.49668 2.23705C8.49934 2.32258 8.50011 2.40945 8.50003 2.5Z" stroke="#352269"/>
<path d="M15.5 3.5L16.4999 3.5C16.5 3.59053 16.4992 3.67736 16.4965 3.76282C16.4894 3.98924 16.4694 4.1509 16.4337 4.26668C16.4007 4.37334 16.3636 4.41209 16.3341 4.43268C16.2994 4.45692 16.2106 4.5 15.9996 4.5C15.7887 4.5 15.7 4.45691 15.6654 4.43274C15.6359 4.41222 15.5989 4.37354 15.566 4.26688C15.5303 4.15109 15.5104 3.98942 15.5033 3.76295C15.5007 3.67742 15.4999 3.59056 15.5 3.5Z" stroke="#352269"/>
<path fill-rule="evenodd" clip-rule="evenodd" d="M2 6C2 3.79086 3.79086 2 6 2H18C20.2091 2 22 3.79086 22 6V18C22 20.2091 20.2091 22 18 22H6C3.79086 22 2 20.2091 2 18V6ZM6 4C4.89543 4 4 4.89543 4 6V18C4 19.1046 4.89543 20 6 20H18C19.1046 20 20 19.1046 20 18V6C20 4.89543 19.1046 4 18 4H6Z" fill="#352269"/>
<mask id="path-6-inside-1_113_56" fill="white">
<path fill-rule="evenodd" clip-rule="evenodd" d="M3 7.75H21L21 18C21 19.6569 19.6569 21 18 21L6 21C4.34315 21 3 19.6569 3 18V7.75ZM14 10.75C14 10.3358 14.3358 10 14.75 10H16.25C16.6642 10 17 10.3358 17 10.75C17 11.1642 16.6642 11.5 16.25 11.5H14.75C14.3358 11.5 14 11.1642 14 10.75ZM14.75 13C14.3358 13 14 13.3358 14 13.75C14 14.1642 14.3358 14.5 14.75 14.5H16.25C16.6642 14.5 17 14.1642 17 13.75C17 13.3358 16.6642 13 16.25 13H14.75Z"/>
</mask>
<path fill-rule="evenodd" clip-rule="evenodd" d="M3 7.75H21L21 18C21 19.6569 19.6569 21 18 21L6 21C4.34315 21 3 19.6569 3 18V7.75ZM14 10.75C14 10.3358 14.3358 10 14.75 10H16.25C16.6642 10 17 10.3358 17 10.75C17 11.1642 16.6642 11.5 16.25 11.5H14.75C14.3358 11.5 14 11.1642 14 10.75ZM14.75 13C14.3358 13 14 13.3358 14 13.75C14 14.1642 14.3358 14.5 14.75 14.5H16.25C16.6642 14.5 17 14.1642 17 13.75C17 13.3358 16.6642 13 16.25 13H14.75Z" fill="#352269"/>
<path d="M21 7.75L22 7.75V6.75H21V7.75ZM3 7.75V6.75H2V7.75H3ZM21 18H22H21ZM18 21V20V21ZM6 21V22V21ZM21 6.75H3V8.75H21V6.75ZM22 18L22 7.75L20 7.75L20 18H22ZM18 22C20.2091 22 22 20.2091 22 18H20C20 19.1046 19.1046 20 18 20V22ZM6 22L18 22V20L6 20V22ZM2 18C2 20.2091 3.79086 22 6 22V20C4.89543 20 4 19.1046 4 18H2ZM2 7.75V18H4V7.75H2ZM14.75 9C13.7835 9 13 9.7835 13 10.75H15C15 10.8881 14.8881 11 14.75 11V9ZM16.25 9H14.75V11H16.25V9ZM18 10.75C18 9.7835 17.2165 9 16.25 9V11C16.1119 11 16 10.8881 16 10.75H18ZM16.25 12.5C17.2165 12.5 18 11.7165 18 10.75H16C16 10.6119 16.1119 10.5 16.25 10.5V12.5ZM14.75 12.5H16.25V10.5H14.75V12.5ZM13 10.75C13 11.7165 13.7835 12.5 14.75 12.5V10.5C14.8881 10.5 15 10.6119 15 10.75H13ZM15 13.75C15 13.8881 14.8881 14 14.75 14V12C13.7835 12 13 12.7835 13 13.75H15ZM14.75 13.5C14.8881 13.5 15 13.6119 15 13.75H13C13 14.7165 13.7835 15.5 14.75 15.5V13.5ZM16.25 13.5H14.75V15.5H16.25V13.5ZM16 13.75C16 13.6119 16.1119 13.5 16.25 13.5V15.5C17.2165 15.5 18 14.7165 18 13.75H16ZM16.25 14C16.1119 14 16 13.8881 16 13.75H18C18 12.7835 17.2165 12 16.25 12V14ZM14.75 14H16.25V12H14.75V14Z" fill="#352269" mask="url(#path-6-inside-1_113_56)"/>
</svg>
