<svg width="24" height="24" viewBox="0 0 24 24" fill="none" xmlns="http://www.w3.org/2000/svg">
<path d="M3 8.72434C3 8.42164 3.13711 8.13523 3.3729 7.9454L11.3729 1.50486C11.739 1.21011 12.261 1.21011 12.6271 1.50486L20.6271 7.9454C20.8629 8.13523 21 8.42164 21 8.72434V20C21 20.5523 20.5523 21 20 21H12H4C3.44772 21 3 20.5523 3 20V8.72434Z" stroke="#352269" stroke-width="1.5" stroke-linecap="round" stroke-linejoin="round"/>
<path d="M15 21L15 17C15 15.3431 13.6569 14 12 14V14C10.3431 14 9 15.3431 9 17L9 21" stroke="#352269" stroke-width="1.5" stroke-linejoin="round"/>
</svg>
