<svg width="24" height="24" viewBox="0 0 24 24" fill="none" xmlns="http://www.w3.org/2000/svg">
<path fill-rule="evenodd" clip-rule="evenodd" d="M3.3729 8.9453C3.13711 9.13512 3 9.42154 3 9.72424V20.9999C3 21.5522 3.44772 21.9999 4 21.9999H9L9 18.9999C9 17.343 10.3431 15.9999 12 15.9999C13.6569 15.9999 15 17.343 15 18.9999V21.9999H20C20.5523 21.9999 21 21.5522 21 20.9999V9.72424C21 9.42154 20.8629 9.13512 20.6271 8.9453L12.6271 2.50475C12.261 2.21 11.739 2.21 11.3729 2.50475L3.3729 8.9453Z" fill="#FF8882"/>
<path fill-rule="evenodd" clip-rule="evenodd" d="M12.1568 3.08896C12.0652 3.01527 11.9348 3.01527 11.8432 3.08896L3.84323 9.5295C3.78428 9.57696 3.75 9.64856 3.75 9.72424V20.9999C3.75 21.138 3.86193 21.2499 4 21.2499H8.25L8.25 18.9999C8.25 16.9288 9.92893 15.2499 12 15.2499C14.0711 15.2499 15.75 16.9288 15.75 18.9999V21.2499H20C20.1381 21.2499 20.25 21.138 20.25 20.9999V9.72424C20.25 9.64856 20.2157 9.57696 20.1568 9.5295L12.1568 3.08896ZM10.9026 1.92055C11.5433 1.40474 12.4567 1.40474 13.0974 1.92055L21.0974 8.36109L20.6271 8.9453L21.0974 8.3611C21.5101 8.69329 21.75 9.19451 21.75 9.72424V20.9999C21.75 21.9664 20.9665 22.7499 20 22.7499H15C14.5858 22.7499 14.25 22.4141 14.25 21.9999V18.9999C14.25 17.7573 13.2426 16.7499 12 16.7499C10.7574 16.7499 9.75 17.7573 9.75 18.9999L9.75 21.9999C9.75 22.4141 9.41421 22.7499 9 22.7499H4C3.0335 22.7499 2.25 21.9664 2.25 20.9999V9.72424C2.25 9.19451 2.48995 8.69329 2.90258 8.36109L3.3729 8.9453L2.90258 8.36109L10.9026 1.92055Z" fill="#FF8882"/>
</svg>
