<svg width="24" height="24" viewBox="0 0 24 24" fill="none" xmlns="http://www.w3.org/2000/svg">
<path fill-rule="evenodd" clip-rule="evenodd" d="M1 4C1 2.89543 1.89543 2 3 2H21C22.1046 2 23 2.89543 23 4V12.5797C23 13.1173 22.7836 13.6323 22.3996 14.0085L16.8664 19.4287C16.4926 19.7949 15.9901 20 15.4668 20H3C1.89543 20 1 19.1046 1 18V4ZM21 4H3V18H15.4668L21 12.5797V4Z" fill="#FF8882"/>
<path fill-rule="evenodd" clip-rule="evenodd" d="M3 3C2.44772 3 2 3.44772 2 4V18C2 18.5523 2.44772 19 3 19H15.4668C15.6569 19 15.8416 18.9459 16 18.846V19L22 13H21.9074C21.9678 12.8696 22 12.7263 22 12.5797V4C22 3.44772 21.5523 3 21 3H3ZM21.9074 13H16V18.846C16.0596 18.8084 16.1155 18.7644 16.1666 18.7144L21.6998 13.2941C21.7871 13.2086 21.857 13.1087 21.9074 13ZM5.25 6C5.25 5.58579 5.58579 5.25 6 5.25H10.3243C10.7385 5.25 11.0743 5.58579 11.0743 6V10C11.0743 10.4142 10.7385 10.75 10.3243 10.75H6C5.58579 10.75 5.25 10.4142 5.25 10V6ZM6.75 6.75V9.25H9.57432V6.75H6.75ZM18.25 7.5C18.6642 7.5 19 7.16421 19 6.75C19 6.33579 18.6642 6 18.25 6H14.75C14.3358 6 14 6.33579 14 6.75C14 7.16421 14.3358 7.5 14.75 7.5H18.25ZM19 9.75C19 10.1642 18.6642 10.5 18.25 10.5H14.75C14.3358 10.5 14 10.1642 14 9.75C14 9.33579 14.3358 9 14.75 9H18.25C18.6642 9 19 9.33579 19 9.75ZM10.25 13.5C10.6642 13.5 11 13.1642 11 12.75C11 12.3358 10.6642 12 10.25 12H5.75C5.33579 12 5 12.3358 5 12.75C5 13.1642 5.33579 13.5 5.75 13.5H10.25ZM11 15.75C11 16.1642 10.6642 16.5 10.25 16.5H5.75C5.33579 16.5 5 16.1642 5 15.75C5 15.3358 5.33579 15 5.75 15H10.25C10.6642 15 11 15.3358 11 15.75Z" fill="#FF8882"/>
<path d="M16 13L22 13L16 19V13Z" stroke="#FF8882" stroke-width="1.5" stroke-linejoin="round"/>
</svg>
