<svg width="24" height="24" viewBox="0 0 24 24" fill="none" xmlns="http://www.w3.org/2000/svg">
<path d="M12 15L12 22L11 22L11 15L12 15Z" fill="#FF8882"/>
<path fill-rule="evenodd" clip-rule="evenodd" d="M12 14.5C12.2761 14.5 12.5 14.7239 12.5 15L12.5 22C12.5 22.2761 12.2761 22.5 12 22.5L11 22.5C10.7239 22.5 10.5 22.2761 10.5 22L10.5 15C10.5 14.7239 10.7239 14.5 11 14.5L12 14.5ZM12 15L11 15L11 22L12 22L12 15Z" fill="#FF8882"/>
<path fill-rule="evenodd" clip-rule="evenodd" d="M11.5 15C8.29659 15 5.6861 13.9404 5.09337 11.2258C4.82938 10.0168 5.16362 8.0546 5.61558 6.25H17.3844C17.8364 8.0546 18.1706 10.0168 17.9066 11.2258C17.3139 13.9404 14.7034 15 11.5 15Z" fill="#FF8882"/>
<path fill-rule="evenodd" clip-rule="evenodd" d="M7.63036 3C7.33857 3.84941 6.83693 5.39577 6.4656 6.98911C6.27831 7.79276 6.12822 8.5914 6.05276 9.30834C5.97572 10.0402 5.98437 10.6186 6.07037 11.0125C6.29842 12.0569 6.89527 12.7698 7.79016 13.2495C8.71994 13.748 9.99177 14 11.5 14C13.0083 14 14.2801 13.748 15.2099 13.2495C16.1047 12.7698 16.7016 12.0569 16.9297 11.0125C17.0157 10.6186 17.0243 10.0402 16.9473 9.30833C16.8718 8.5914 16.7217 7.79275 16.5344 6.98911C16.1631 5.39576 15.6615 3.84941 15.3697 3H7.63036ZM5.7466 2.3277C6.02569 1.51661 6.78719 1 7.61856 1H15.3815C16.2128 1 16.9743 1.51661 17.2534 2.32769C17.554 3.20113 18.0855 4.83295 18.4822 6.53518C18.6805 7.3861 18.8492 8.27158 18.9363 9.09898C19.0218 9.91142 19.0368 10.7376 18.8836 11.4391C18.5189 13.1093 17.5142 14.2835 16.1548 15.0122C14.8303 15.7223 13.1952 16 11.5 16C9.80486 16 8.16974 15.7223 6.84523 15.0122C5.48584 14.2835 4.48108 13.1093 4.11641 11.4391C3.96322 10.7376 3.97823 9.91142 4.06375 9.09898C4.15084 8.27158 4.31949 7.3861 4.5178 6.53518C4.9145 4.83295 5.44605 3.20113 5.7466 2.3277Z" fill="#FF8882"/>
<path fill-rule="evenodd" clip-rule="evenodd" d="M5.18188 22C5.18188 21.4477 5.6296 21 6.18188 21H16.8182C17.3705 21 17.8182 21.4477 17.8182 22C17.8182 22.5523 17.3705 23 16.8182 23H6.18188C5.6296 23 5.18188 22.5523 5.18188 22Z" fill="#FF8882"/>
</svg>
