<svg width="375" height="120" viewBox="0 0 375 120" fill="none" xmlns="http://www.w3.org/2000/svg">
<g clip-path="url(#clip0_622_7729)">
<rect width="375" height="120" fill="#352269"/>
<path fill-rule="evenodd" clip-rule="evenodd" d="M375 -65C410.899 -65 440 -35.8985 440 0C440 35.8985 410.899 65 375 65C339.101 65 310 35.8985 310 0C310 -35.8985 339.101 -65 375 -65ZM375 -27.3C390.077 -27.3 402.3 -15.0774 402.3 0C402.3 15.0774 390.077 27.3 375 27.3C359.923 27.3 347.7 15.0774 347.7 0C347.7 -15.0774 359.923 -27.3 375 -27.3Z" fill="#FFBD54"/>
<path fill-rule="evenodd" clip-rule="evenodd" d="M219.5 -108C276.661 -108 323 -61.6615 323 -4.5C323 52.6615 276.661 99 219.5 99C162.339 99 116 52.6615 116 -4.5C116 -61.6615 162.339 -108 219.5 -108ZM219.5 -87C265.063 -87 302 -50.0635 302 -4.5C302 41.0635 265.063 78 219.5 78C173.937 78 137 41.0635 137 -4.5C137 -50.0635 173.937 -87 219.5 -87Z" fill="#FF8882"/>
<path fill-rule="evenodd" clip-rule="evenodd" d="M18 57C57.2122 57 89 88.7878 89 128C89 167.212 57.2122 199 18 199C-21.2122 199 -53 167.212 -53 128C-53 88.7878 -21.2122 57 18 57ZM18 73C48.3757 73 73 97.6243 73 128C73 158.376 48.3757 183 18 183C-12.3757 183 -37 158.376 -37 128C-37 97.6243 -12.3757 73 18 73Z" fill="#FFBD54"/>
</g>
<defs>
<clipPath id="clip0_622_7729">
<rect width="375" height="120" fill="white"/>
</clipPath>
</defs>
</svg>
