<svg width="23" height="16" viewBox="0 0 23 16" fill="none" xmlns="http://www.w3.org/2000/svg">
<path fill-rule="evenodd" clip-rule="evenodd" d="M4 5C4 5.82843 3.32843 6.5 2.5 6.5C1.67157 6.5 1 5.82843 1 5C1 4.17157 1.67157 3.5 2.5 3.5C3.32843 3.5 4 4.17157 4 5ZM7 5.5C7 6.05228 7.44772 6.5 8 6.5L21 6.5C21.5523 6.5 22 6.05228 22 5.5C22 4.94771 21.5523 4.5 21 4.5L8 4.5C7.44772 4.5 7 4.94772 7 5.5ZM7 10.5C7 11.0523 7.44772 11.5 8 11.5L21 11.5C21.5523 11.5 22 11.0523 22 10.5C22 9.94771 21.5523 9.5 21 9.5L8 9.5C7.44772 9.5 7 9.94771 7 10.5ZM2.5 12.7499C3.32843 12.7499 4 12.0783 4 11.2499C4 10.4215 3.32843 9.74988 2.5 9.74988C1.67157 9.74988 1 10.4215 1 11.2499C1 12.0783 1.67157 12.7499 2.5 12.7499Z" fill="#9D97B7"/>
</svg>
