<svg width="24" height="24" viewBox="0 0 24 24" fill="none" xmlns="http://www.w3.org/2000/svg">
<path d="M15.5 2.5L16.5 2.5C16.5001 2.40944 16.4993 2.32258 16.4967 2.23704C16.4896 2.01058 16.4697 1.84895 16.434 1.7332C16.4011 1.62661 16.3641 1.58792 16.3346 1.56736C16.2998 1.54312 16.2109 1.5 15.9996 1.5C15.7883 1.5 15.6996 1.54312 15.6649 1.56729C15.6356 1.58777 15.5986 1.62636 15.5657 1.73296C15.5301 1.84872 15.5102 2.01037 15.5033 2.23689C15.5006 2.32251 15.4999 2.40941 15.5 2.5Z" stroke="#352269"/>
<path d="M8.50003 3.5L7.49997 3.5C7.49989 3.59055 7.50066 3.67742 7.50332 3.76296C7.51036 3.98942 7.53029 4.15105 7.566 4.2668C7.59889 4.37339 7.63594 4.41208 7.66544 4.43264C7.70022 4.45688 7.7891 4.5 8.00037 4.5C8.21165 4.5 8.30042 4.45688 8.33507 4.43271C8.36444 4.41223 8.40144 4.37364 8.43427 4.26704C8.46992 4.15128 8.48978 3.98963 8.49675 3.76311C8.49938 3.67749 8.50013 3.59059 8.50003 3.5Z" stroke="#352269"/>
<path d="M8.50003 2.5L7.49997 2.5C7.49991 2.40947 7.5007 2.32264 7.50338 2.23718C7.51048 2.01076 7.53047 1.84911 7.56623 1.73333C7.59916 1.62667 7.63626 1.58791 7.6658 1.56732C7.70056 1.54308 7.78934 1.5 8.00031 1.5C8.2113 1.5 8.29998 1.54309 8.33464 1.56726C8.36406 1.58779 8.40111 1.62647 8.434 1.73313C8.46971 1.84891 8.48964 2.01058 8.49668 2.23705C8.49934 2.32258 8.50011 2.40945 8.50003 2.5Z" stroke="#352269"/>
<path d="M15.5 3.5L16.4999 3.5C16.5 3.59053 16.4992 3.67736 16.4965 3.76282C16.4894 3.98924 16.4694 4.1509 16.4337 4.26668C16.4007 4.37334 16.3636 4.41209 16.3341 4.43268C16.2994 4.45692 16.2106 4.5 15.9996 4.5C15.7887 4.5 15.7 4.45691 15.6654 4.43274C15.6359 4.41222 15.5989 4.37354 15.566 4.26688C15.5303 4.15109 15.5104 3.98942 15.5033 3.76295C15.5007 3.67742 15.4999 3.59056 15.5 3.5Z" stroke="#352269"/>
<rect x="3" y="3" width="18" height="18" rx="3" stroke="#352269" stroke-width="1.5"/>
<rect x="14" y="10" width="3" height="1.5" rx="0.75" fill="#352269"/>
<rect x="14" y="13" width="3" height="1.5" rx="0.75" fill="#352269"/>
<line x1="21" y1="7.75" x2="3" y2="7.75" stroke="#352269" stroke-width="1.5"/>
</svg>
