<svg width="110" height="108" viewBox="0 0 110 108" fill="none" xmlns="http://www.w3.org/2000/svg">
<rect width="110" height="108" fill="#F5F5F5"/>
<path d="M-108 -284C-108 -285.105 -107.105 -286 -106 -286H916C917.105 -286 918 -285.105 918 -284V1376C918 1377.1 917.105 1378 916 1378H-106C-107.105 1378 -108 1377.1 -108 1376V-284Z" fill="#D9D9D9"/>
<g clip-path="url(#clip0_1_2)">
<rect width="375" height="1464" transform="translate(-16 -186)" fill="#F0EEEF"/>
<g clip-path="url(#clip1_1_2)">
<rect width="375" height="212" transform="translate(-16 -80)" fill="#FAFAFA"/>
<rect width="335" height="108" rx="8" fill="white"/>
<g clip-path="url(#clip2_1_2)">
<rect width="110" height="108" fill="#D9D9D9"/>
<g clip-path="url(#clip3_1_2)">
<rect width="110" height="108" fill="#F0EEEF"/>
<path fill-rule="evenodd" clip-rule="evenodd" d="M109 -38C134.957 -38 156 -16.9574 156 9C156 34.9574 134.957 56 109 56C83.0426 56 62 34.9574 62 9C62 -16.9574 83.0426 -38 109 -38ZM109 -10.74C119.902 -10.74 128.74 -1.90208 128.74 9.00002C128.74 19.9021 119.902 28.74 109 28.74C98.098 28.74 89.2601 19.9021 89.2601 9.00002C89.2601 -1.90208 98.098 -10.74 109 -10.74Z" fill="#FF8882"/>
<path fill-rule="evenodd" clip-rule="evenodd" d="M7.5 42C42.5701 42 71 70.4299 71 105.5C71 140.57 42.5701 169 7.5 169C-27.5701 169 -56 140.57 -56 105.5C-56 70.4299 -27.5701 42 7.5 42ZM7.5 56.3099C34.667 56.3099 56.6901 78.333 56.6901 105.5C56.6901 132.667 34.667 154.69 7.5 154.69C-19.667 154.69 -41.6901 132.667 -41.6901 105.5C-41.6901 78.333 -19.667 56.3099 7.5 56.3099Z" fill="#FFBD54"/>
</g>
</g>
</g>
</g>
<path d="M-106 -285H916V-287H-106V-285ZM917 -284V1376H919V-284H917ZM916 1377H-106V1379H916V1377ZM-107 1376V-284H-109V1376H-107ZM-106 1377C-106.552 1377 -107 1376.55 -107 1376H-109C-109 1377.66 -107.657 1379 -106 1379V1377ZM917 1376C917 1376.55 916.552 1377 916 1377V1379C917.657 1379 919 1377.66 919 1376H917ZM916 -285C916.552 -285 917 -284.552 917 -284H919C919 -285.657 917.657 -287 916 -287V-285ZM-106 -287C-107.657 -287 -109 -285.657 -109 -284H-107C-107 -284.552 -106.552 -285 -106 -285V-287Z" fill="black" fill-opacity="0.1"/>
<defs>
<clipPath id="clip0_1_2">
<rect width="375" height="1464" fill="white" transform="translate(-16 -186)"/>
</clipPath>
<clipPath id="clip1_1_2">
<rect width="375" height="212" fill="white" transform="translate(-16 -80)"/>
</clipPath>
<clipPath id="clip2_1_2">
<rect width="110" height="108" fill="white"/>
</clipPath>
<clipPath id="clip3_1_2">
<rect width="110" height="108" fill="white"/>
</clipPath>
</defs>
</svg>
