<svg width="20" height="27" viewBox="0 0 20 27" fill="none" xmlns="http://www.w3.org/2000/svg">
<path fill-rule="evenodd" clip-rule="evenodd" d="M3.5 5C4.32843 5 5 4.32843 5 3.5C5 2.67157 4.32843 2 3.5 2C2.67157 2 2 2.67157 2 3.5C2 4.32843 2.67157 5 3.5 5ZM3.5 7C5.433 7 7 5.433 7 3.5C7 1.567 5.433 0 3.5 0C1.567 0 0 1.567 0 3.5C0 5.433 1.567 7 3.5 7Z" fill="#352269"/>
<path fill-rule="evenodd" clip-rule="evenodd" d="M6.42863 3.11121L6.19272 5.09724L6.37021 5.11842C6.48492 5.13215 6.65122 5.1521 6.8574 5.17698C7.26981 5.22676 7.84157 5.29626 8.47898 5.37515C9.75629 5.53323 11.2886 5.72795 12.3319 5.8771C13.0475 5.97939 13.4826 6.39045 13.6588 6.80982C13.8348 7.22889 13.7669 7.65855 13.4522 7.97326C13.2873 8.13816 13.0044 8.31094 12.5192 8.47542C12.0365 8.63902 11.4223 8.77214 10.6529 8.9003C10.0452 9.00153 9.37278 9.09477 8.62156 9.19894L8.62152 9.19894C8.42278 9.2265 8.21853 9.25482 8.0085 9.28426C7.01279 9.42381 5.90711 9.58586 4.70824 9.80383C1.93283 10.3084 0.261932 12.3642 0.274978 14.5921C0.288304 16.8677 2.03744 18.8826 5.15649 19.3625C6.18824 19.5212 7.11727 19.6504 7.94634 19.7557C7.71639 19.0776 7.57785 18.3839 7.56972 17.6897C6.92382 17.6033 6.22117 17.5027 5.4606 17.3857C3.1005 17.0226 2.28134 15.673 2.27494 14.5804C2.26827 13.4402 3.12622 12.1242 5.06599 11.7716C6.22471 11.5609 7.29879 11.4033 8.2861 11.2649C8.48649 11.2368 8.68417 11.2094 8.87873 11.1824L8.88086 11.1821C9.63607 11.0775 10.3442 10.9793 10.9816 10.8731C11.7827 10.7397 12.5235 10.5857 13.1612 10.3696C13.7962 10.1543 14.3991 9.85477 14.8664 9.38747C15.8161 8.43778 15.9589 7.12146 15.5027 6.03535C15.0467 4.94954 14.0067 4.09619 12.615 3.89723C11.551 3.74513 10.0019 3.54837 8.72463 3.39029C8.08475 3.3111 7.51092 3.24135 7.09706 3.1914C6.89012 3.16642 6.72312 3.14638 6.6078 3.13259L6.42863 3.11121Z" fill="#352269"/>
<path fill-rule="evenodd" clip-rule="evenodd" d="M13.5693 15C11.8507 15 10.5693 16.291 10.5693 17.75C10.5693 18.9322 11.3561 20.2564 12.33 21.3978C12.7749 21.9191 13.2224 22.3603 13.5693 22.6793C13.9163 22.3603 14.3638 21.9191 14.8086 21.3978C15.7826 20.2564 16.5693 18.9322 16.5693 17.75C16.5693 16.291 15.288 15 13.5693 15ZM13.5693 24C12.9537 24.788 12.9533 24.7877 12.9533 24.7877L12.9515 24.7863L12.9478 24.7834L12.9361 24.7742L12.8963 24.7422C12.8626 24.7151 12.8151 24.6762 12.7556 24.6264C12.6367 24.5269 12.4698 24.3834 12.2707 24.202C11.8739 23.8403 11.3427 23.3218 10.8086 22.696C9.78259 21.4936 8.56934 19.6928 8.56934 17.75C8.56934 15.0668 10.8697 13 13.5693 13C16.269 13 18.5693 15.0668 18.5693 17.75C18.5693 19.6928 17.3561 21.4936 16.33 22.696C15.796 23.3218 15.2648 23.8403 14.868 24.202C14.6689 24.3834 14.5019 24.5269 14.3831 24.6264C14.3236 24.6762 14.2761 24.7151 14.2424 24.7422L14.2026 24.7742L14.1909 24.7834L14.1872 24.7863L14.1859 24.7873C14.1859 24.7873 14.185 24.788 13.5693 24ZM13.5693 24L14.185 24.788C13.8232 25.0707 13.315 25.0703 12.9533 24.7877L13.5693 24Z" fill="#352269"/>
<path d="M14.5693 18C14.5693 18.5523 14.1216 19 13.5693 19C13.0171 19 12.5693 18.5523 12.5693 18C12.5693 17.4477 13.0171 17 13.5693 17C14.1216 17 14.5693 17.4477 14.5693 18Z" fill="#352269"/>
</svg>
